# Blender 5.0.0
# www.blender.org
mtllib player.mtl
o Cube
v -0.588219 0.493684 1.550806
v -0.588219 -0.493684 1.550806
v 0.606368 0.493684 1.543801
v 0.606368 -0.493684 1.543801
v -0.197670 0.180958 3.627415
v -0.197670 -0.180958 3.627415
v 0.240202 0.180958 3.624847
v 0.240202 -0.180958 3.624847
v 0.294229 0.460455 -1.986784
v 0.294229 1.091601 -1.986784
v 0.305186 0.460455 -0.118521
v -0.317512 0.460455 -1.983196
v -0.317512 1.091601 -1.983196
v -0.306555 0.460455 -0.114933
v 0.300089 1.091601 -0.987586
v 0.305186 0.814316 -0.118521
v -0.306555 0.814316 -0.114933
v -0.311652 1.091601 -0.983998
v 0.691320 0.415365 -1.551411
v 0.493463 0.578900 -1.550251
v 0.677718 0.565256 -1.055832
v 0.279247 0.412392 -3.725322
v 0.477104 0.248857 -3.726483
v 0.474060 -0.578900 -1.550137
v 0.691320 -0.399327 -1.551411
v 0.676384 -0.563918 -1.007232
v 0.477104 -0.232820 -3.726483
v 0.259844 -0.412392 -3.725209
v -0.525776 0.578900 -1.544273
v -0.709468 0.427072 -1.543196
v -0.691445 0.566233 -1.083275
v -0.520778 0.260564 -3.720631
v -0.337086 0.412392 -3.721708
v -0.709468 -0.427434 -1.543196
v -0.526214 -0.578900 -1.544271
v -0.691488 -0.566263 -1.084372
v -0.337524 -0.412392 -3.721705
v -0.520778 -0.260926 -3.720631
v 1.596137 1.530353 -4.408978
v 1.398281 1.693888 -4.407817
v 1.184065 1.527380 -6.582889
v 1.381921 1.363845 -6.584049
v -1.460966 1.690056 -4.405451
v -1.644657 1.538229 -4.404374
v -1.455967 1.371721 -6.581808
v -1.272275 1.523549 -6.582885
v 1.393758 -1.704720 -3.397152
v 1.611017 -1.525148 -3.398426
v 1.396801 -1.358640 -5.573498
v 1.179542 -1.538213 -5.572224
v -1.639446 -1.539919 -3.328553
v -1.456192 -1.691385 -3.329628
v -1.267502 -1.524877 -5.507062
v -1.450756 -1.373412 -5.505988
v 0.691320 -0.127763 -1.551411
v 0.691320 0.143801 -1.551411
v 0.477104 -0.072261 -3.726483
v 0.477104 0.088298 -3.726483
v -0.709468 0.142237 -1.543196
v -0.709468 -0.142599 -1.543196
v -0.520778 0.086734 -3.720631
v -0.520778 -0.087096 -3.720631
v 4.458952 -0.127763 -3.586323
v 4.458952 0.143801 -3.586323
v 4.244736 -0.072261 -5.761395
v 4.244736 0.088298 -5.761395
v -4.199023 0.142237 -3.696315
v -4.199023 -0.142599 -3.696315
v -4.010333 0.086734 -5.873749
v -4.010333 -0.087096 -5.873749
vn -0.9828 -0.0000 0.1848
vn 0.0059 -0.0000 1.0000
vn 0.9849 -0.0000 0.1733
vn 0.0009 -0.9889 0.1488
vn 0.0009 0.9889 0.1488
vn -0.0059 -0.0000 -1.0000
vn -0.0000 -1.0000 -0.0000
vn 0.0018 0.9527 0.3040
vn -0.0000 1.0000 -0.0000
vn 1.0000 -0.0000 -0.0059
vn -1.0000 -0.0000 0.0059
vn 0.6220 0.7540 -0.2110
vn -0.7470 0.6644 0.0227
vn 0.6220 -0.7540 -0.2110
vn 0.7545 0.6559 -0.0241
vn 0.9996 -0.0000 0.0274
vn 0.9952 -0.0000 -0.0980
vn -0.6244 0.7540 -0.2037
vn -0.7471 -0.6646 -0.0139
vn -0.0004 0.9971 -0.0763
vn 0.0002 0.9996 0.0275
vn -0.6244 -0.7540 -0.2037
vn 0.4923 0.6001 -0.6304
vn -0.9992 -0.0000 0.0392
vn -0.0004 -0.9971 -0.0763
vn 0.0002 -0.9996 0.0275
vn -0.9963 -0.0000 -0.0863
vn 0.6320 0.7655 -0.1208
vn 0.7470 -0.6644 -0.0227
vn -0.5708 -0.6874 -0.4490
vn 0.5708 0.6874 0.4490
vn -0.6334 0.7655 -0.1134
vn 0.7471 0.6646 0.0139
vn 0.5665 -0.6886 -0.4526
vn -0.5665 0.6886 0.4526
vn 0.6320 -0.7655 -0.1208
vn -0.7545 -0.6559 0.0241
vn 0.5028 -0.6039 0.6185
vn -0.5028 0.6039 -0.6185
vn -0.6334 -0.7655 -0.1134
vn 0.7549 -0.6556 0.0153
vn -0.7549 0.6556 -0.0153
vn -0.4923 -0.6001 0.6304
vn -0.4752 -0.0000 -0.8799
vn 0.0149 -0.9996 -0.0242
vn 0.4752 -0.0000 0.8799
vn -0.0131 0.9996 -0.0242
vn -0.0131 -0.9996 -0.0242
vn 0.0149 0.9996 -0.0242
vn 0.5251 -0.0000 -0.8510
vn -0.5251 -0.0000 0.8510
vt 0.265613 0.515625
vt 0.480481 0.515625
vt 0.480481 0.300756
vt 0.265613 0.300756
vt 0.050744 0.515625
vt 0.695350 0.515625
vt 0.832711 0.349015
vt 0.733696 0.448030
vt 0.733696 0.349015
vt 0.733696 0.250000
vt 0.634681 0.349015
vt 0.634681 0.250000
vt 0.832711 0.286784
vt 0.789210 0.150985
vt 0.832711 0.123397
vt 0.931726 0.305176
vt 0.733696 0.051970
vt 0.733696 0.150985
vt 0.450132 0.085888
vt 0.480481 0.087401
vt 0.480481 0.120291
vt 0.652746 0.730494
vt 0.665000 0.730494
vt 0.084070 0.730494
vt 0.050744 0.728832
vt 0.050744 0.692717
vt 0.312394 0.085888
vt 0.298938 0.085888
vt 0.399734 0.085888
vt 0.349336 0.085888
vt 0.354222 0.085888
vt 0.508658 0.730494
vt 0.458927 0.730494
vt 0.480481 0.698554
vt 0.440928 0.730494
vt 0.506850 0.743678
vt 0.294719 0.730494
vt 0.244100 0.730494
vt 0.265613 0.698630
vt 0.239307 0.743647
vt 0.305072 0.730494
vt 0.349455 0.730494
vt 0.097525 0.730494
vt 0.404191 0.730494
vt 0.395642 0.730494
vt 0.480481 0.902759
vt 0.396050 0.945362
vt 0.437878 0.085888
vt 0.480481 0.085888
vt 0.437878 0.945362
vt 0.265613 0.898581
vt 0.312394 0.945362
vt 0.354222 0.945362
vt 0.350357 0.730494
vt 0.396050 0.085888
vt 0.832711 0.448030
vt 0.789210 0.250000
vt 0.931726 0.349015
vt 0.832711 0.051970
vt 0.265613 0.123664
vt 0.695350 0.696091
vt 0.050744 0.730494
s 0
usemtl Material
f 2/1/1 5/2/1 1/2/1
f 7/3/2 6/1/2 8/4/2
f 3/3/3 8/4/3 4/4/3
f 4/5/4 6/1/4 2/1/4
f 1/2/5 7/6/5 3/6/5
f 13/7/6 9/8/6 12/9/6
f 14/10/7 9/11/7 11/12/7
f 18/13/8 16/14/8 15/15/8
f 15/16/9 13/7/9 18/13/9
f 16/14/10 9/17/10 15/15/10
f 16/14/2 14/10/2 11/18/2
f 18/13/11 13/7/11 12/9/11
f 19/19/12 20/20/12 21/21/12
f 22/22/13 40/23/13 41/22/13
f 24/24/14 25/25/14 26/26/14
f 27/27/15 48/28/15 49/27/15
f 56/29/16 19/19/16 21/21/16
f 55/30/17 27/27/17 57/31/17
f 29/32/18 30/33/18 31/34/18
f 32/35/19 44/33/19 45/35/19
f 20/23/20 33/36/20 29/32/20
f 20/23/21 29/32/21 1/2/21
f 34/37/22 35/38/22 36/39/22
f 37/40/23 54/41/23 38/41/23
f 34/37/24 36/39/24 60/42/24
f 24/24/25 37/40/25 28/43/25
f 35/38/26 24/24/26 2/1/26
f 59/44/27 32/35/27 61/45/27
f 22/46/6 58/47/6 61/45/6
f 40/20/28 42/48/28 41/49/28
f 23/48/29 39/19/29 19/19/29
f 22/46/30 42/50/30 23/50/30
f 20/20/31 39/19/31 40/20/31
f 45/35/32 43/32/32 46/36/32
f 33/36/33 43/32/33 29/32/33
f 33/36/34 45/35/34 46/36/34
f 29/32/35 44/33/35 30/33/35
f 50/43/36 48/25/36 47/24/36
f 28/43/37 47/24/37 24/24/37
f 24/24/38 48/25/38 25/25/38
f 28/51/39 49/52/39 50/51/39
f 54/41/40 52/38/40 51/37/40
f 37/40/41 52/38/41 53/40/41
f 38/41/42 51/37/42 34/37/42
f 35/38/43 51/37/43 52/38/43
f 56/29/17 23/48/17 19/19/17
f 58/47/44 65/53/44 57/53/44
f 60/42/27 38/41/27 34/37/27
f 62/54/45 68/42/45 70/54/45
f 63/30/17 66/55/17 64/29/17
f 55/30/46 64/29/46 56/29/46
f 56/29/47 66/55/47 58/55/47
f 55/30/48 65/31/48 63/30/48
f 67/44/27 70/54/27 68/42/27
f 61/45/49 67/44/49 59/44/49
f 62/54/50 69/45/50 61/45/50
f 59/44/51 68/42/51 60/42/51
f 2/1/1 6/1/1 5/2/1
f 7/3/2 5/2/2 6/1/2
f 3/3/3 7/3/3 8/4/3
f 4/5/4 8/5/4 6/1/4
f 1/2/5 5/2/5 7/6/5
f 13/7/6 10/56/6 9/8/6
f 14/10/7 12/9/7 9/11/7
f 18/13/8 17/57/8 16/14/8
f 15/16/9 10/58/9 13/7/9
f 11/18/10 9/17/10 16/14/10
f 9/17/10 10/59/10 15/15/10
f 16/14/2 17/57/2 14/10/2
f 12/9/11 14/10/11 17/57/11
f 17/57/11 18/13/11 12/9/11
f 22/22/13 20/23/13 40/23/13
f 27/27/15 25/28/15 48/28/15
f 4/4/16 26/60/16 55/30/16
f 26/60/16 25/28/16 55/30/16
f 21/21/16 3/3/16 56/29/16
f 3/3/16 4/4/16 55/30/16
f 56/29/16 3/3/16 55/30/16
f 55/30/17 25/28/17 27/27/17
f 32/35/19 30/33/19 44/33/19
f 20/23/20 22/22/20 33/36/20
f 31/34/21 1/2/21 29/32/21
f 1/2/21 3/6/21 20/23/21
f 3/6/21 21/61/21 20/23/21
f 37/40/23 53/40/23 54/41/23
f 36/39/24 2/1/24 60/42/24
f 2/1/24 1/2/24 59/44/24
f 60/42/24 2/1/24 59/44/24
f 1/2/24 31/34/24 59/44/24
f 31/34/24 30/33/24 59/44/24
f 24/24/25 35/38/25 37/40/25
f 26/26/26 4/5/26 24/24/26
f 4/5/26 2/1/26 24/24/26
f 2/1/26 36/39/26 35/38/26
f 59/44/27 30/33/27 32/35/27
f 28/51/6 37/40/6 62/54/6
f 37/40/6 38/41/6 62/54/6
f 57/53/6 27/52/6 28/51/6
f 22/46/6 23/50/6 58/47/6
f 58/47/6 57/53/6 61/45/6
f 57/53/6 28/51/6 62/54/6
f 61/45/6 57/53/6 62/54/6
f 61/45/6 32/35/6 33/36/6
f 33/36/6 22/46/6 61/45/6
f 40/20/28 39/19/28 42/48/28
f 23/48/29 42/48/29 39/19/29
f 22/46/30 41/46/30 42/50/30
f 20/20/31 19/19/31 39/19/31
f 45/35/32 44/33/32 43/32/32
f 33/36/33 46/36/33 43/32/33
f 33/36/34 32/35/34 45/35/34
f 29/32/35 43/32/35 44/33/35
f 50/43/36 49/62/36 48/25/36
f 28/43/37 50/43/37 47/24/37
f 24/24/38 47/24/38 48/25/38
f 28/51/39 27/52/39 49/52/39
f 54/41/40 53/40/40 52/38/40
f 37/40/41 35/38/41 52/38/41
f 38/41/42 54/41/42 51/37/42
f 35/38/43 34/37/43 51/37/43
f 56/29/17 58/55/17 23/48/17
f 58/47/44 66/47/44 65/53/44
f 60/42/27 62/54/27 38/41/27
f 62/54/45 60/42/45 68/42/45
f 63/30/17 65/31/17 66/55/17
f 55/30/46 63/30/46 64/29/46
f 56/29/47 64/29/47 66/55/47
f 55/30/48 57/31/48 65/31/48
f 67/44/27 69/45/27 70/54/27
f 61/45/49 69/45/49 67/44/49
f 62/54/50 70/54/50 69/45/50
f 59/44/51 67/44/51 68/42/51
