# Blender 5.0.0
# www.blender.org
mtllib enemy.mtl
o 円
v 0.000000 0.000000 -1.457099
v -0.284266 0.000000 -1.429101
v -0.557608 0.000000 -1.346184
v -0.809521 0.000000 -1.211533
v -1.030325 0.000000 -1.030325
v -1.211533 0.000000 -0.809521
v -1.346184 0.000000 -0.557608
v -1.429101 0.000000 -0.284266
v -1.457099 0.000000 0.000000
v -1.429101 0.000000 0.284266
v -1.346184 0.000000 0.557608
v -1.211533 0.000000 0.809521
v -1.030325 0.000000 1.030325
v -0.809521 0.000000 1.211533
v -0.557608 0.000000 1.346184
v -0.284266 0.000000 1.429101
v 0.000000 0.000000 1.457099
v 0.284266 0.000000 1.429101
v 0.557608 0.000000 1.346184
v 0.809521 0.000000 1.211533
v 1.030325 0.000000 1.030325
v 1.211533 0.000000 0.809521
v 1.346184 0.000000 0.557608
v 1.429101 0.000000 0.284266
v 1.457099 0.000000 0.000000
v 1.429101 0.000000 -0.284266
v 1.346184 0.000000 -0.557608
v 1.211533 0.000000 -0.809521
v 1.030325 0.000000 -1.030325
v 0.809521 0.000000 -1.211533
v 0.557608 0.000000 -1.346184
v 0.284266 0.000000 -1.429101
v -0.000000 0.710806 -0.000000
v -0.205488 0.133511 -1.033060
v 0.000000 0.133511 -1.053299
v -0.403080 0.133511 -0.973122
v -0.585182 0.133511 -0.875786
v -0.744795 0.133511 -0.744795
v -0.875786 0.133511 -0.585182
v -0.973122 0.133511 -0.403080
v -1.033060 0.133511 -0.205488
v -1.053299 0.133511 0.000000
v -1.033060 0.133511 0.205488
v -0.973122 0.133511 0.403080
v -0.875786 0.133511 0.585182
v -0.744795 0.133511 0.744795
v -0.585182 0.133511 0.875786
v -0.403080 0.133511 0.973122
v -0.205488 0.133511 1.033060
v 0.000000 0.133511 1.053299
v 0.205488 0.133511 1.033060
v 0.403080 0.133511 0.973122
v 0.585182 0.133511 0.875786
v 0.744795 0.133511 0.744795
v 0.875786 0.133511 0.585182
v 0.973122 0.133511 0.403080
v 1.033060 0.133511 0.205488
v 1.053299 0.133511 0.000000
v 1.033060 0.133511 -0.205488
v 0.973122 0.133511 -0.403080
v 0.875786 0.133511 -0.585182
v 0.744795 0.133511 -0.744795
v 0.585182 0.133511 -0.875786
v 0.403080 0.133511 -0.973122
v 0.205488 0.133511 -1.033060
v -0.125164 0.418747 -0.629242
v 0.000000 0.418747 -0.641570
v -0.245518 0.418747 -0.592733
v -0.356437 0.418747 -0.533446
v -0.453658 0.418747 -0.453658
v -0.533446 0.418747 -0.356437
v -0.592733 0.418747 -0.245518
v -0.629242 0.418747 -0.125164
v -0.641570 0.418747 0.000000
v -0.629242 0.418747 0.125164
v -0.592733 0.418747 0.245518
v -0.533446 0.418747 0.356437
v -0.453658 0.418747 0.453658
v -0.356437 0.418747 0.533446
v -0.245518 0.418747 0.592733
v -0.125164 0.418747 0.629242
v 0.000000 0.418747 0.641570
v 0.125164 0.418747 0.629242
v 0.245518 0.418747 0.592733
v 0.356437 0.418747 0.533446
v 0.453658 0.418747 0.453658
v 0.533446 0.418747 0.356437
v 0.592733 0.418747 0.245518
v 0.629242 0.418747 0.125164
v 0.641570 0.418747 0.000000
v 0.629242 0.418747 -0.125164
v 0.592733 0.418747 -0.245518
v 0.533446 0.418747 -0.356437
v 0.453658 0.418747 -0.453658
v 0.356437 0.418747 -0.533446
v 0.245518 0.418747 -0.592733
v 0.125164 0.418747 -0.629242
v -0.049034 0.654654 -0.246511
v 0.000000 0.654654 -0.251341
v -0.096184 0.654654 -0.232209
v -0.139637 0.654654 -0.208982
v -0.177725 0.654654 -0.177725
v -0.208982 0.654654 -0.139637
v -0.232209 0.654654 -0.096184
v -0.246511 0.654654 -0.049034
v -0.251341 0.654654 0.000000
v -0.246511 0.654654 0.049034
v -0.232209 0.654654 0.096184
v -0.208982 0.654654 0.139637
v -0.177725 0.654654 0.177725
v -0.139637 0.654654 0.208982
v -0.096184 0.654654 0.232209
v -0.049034 0.654654 0.246511
v 0.000000 0.654654 0.251341
v 0.049034 0.654654 0.246511
v 0.096184 0.654654 0.232209
v 0.139637 0.654654 0.208982
v 0.177725 0.654654 0.177725
v 0.208982 0.654654 0.139637
v 0.232209 0.654654 0.096184
v 0.246511 0.654654 0.049034
v 0.251341 0.654654 0.000000
v 0.246511 0.654654 -0.049034
v 0.232209 0.654654 -0.096184
v 0.208982 0.654654 -0.139637
v 0.177725 0.654654 -0.177725
v 0.139637 0.654654 -0.208982
v 0.096184 0.654654 -0.232209
v 0.049034 0.654654 -0.246511
v -0.000000 -0.710806 -0.000000
v -0.205488 -0.133511 -1.033060
v 0.000000 -0.133511 -1.053299
v -0.403080 -0.133511 -0.973122
v -0.585182 -0.133511 -0.875786
v -0.744795 -0.133511 -0.744795
v -0.875786 -0.133511 -0.585182
v -0.973122 -0.133511 -0.403080
v -1.033060 -0.133511 -0.205488
v -1.053299 -0.133511 0.000000
v -1.033060 -0.133511 0.205488
v -0.973122 -0.133511 0.403080
v -0.875786 -0.133511 0.585182
v -0.744795 -0.133511 0.744795
v -0.585182 -0.133511 0.875786
v -0.403080 -0.133511 0.973122
v -0.205488 -0.133511 1.033060
v 0.000000 -0.133511 1.053299
v 0.205488 -0.133511 1.033060
v 0.403080 -0.133511 0.973122
v 0.585182 -0.133511 0.875786
v 0.744795 -0.133511 0.744795
v 0.875786 -0.133511 0.585182
v 0.973122 -0.133511 0.403080
v 1.033060 -0.133511 0.205488
v 1.053299 -0.133511 0.000000
v 1.033060 -0.133511 -0.205488
v 0.973122 -0.133511 -0.403080
v 0.875786 -0.133511 -0.585182
v 0.744795 -0.133511 -0.744795
v 0.585182 -0.133511 -0.875786
v 0.403080 -0.133511 -0.973122
v 0.205488 -0.133511 -1.033060
v -0.125164 -0.418747 -0.629242
v 0.000000 -0.418747 -0.641570
v -0.245518 -0.418747 -0.592733
v -0.356437 -0.418747 -0.533446
v -0.453658 -0.418747 -0.453658
v -0.533446 -0.418747 -0.356437
v -0.592733 -0.418747 -0.245518
v -0.629242 -0.418747 -0.125164
v -0.641570 -0.418747 0.000000
v -0.629242 -0.418747 0.125164
v -0.592733 -0.418747 0.245518
v -0.533446 -0.418747 0.356437
v -0.453658 -0.418747 0.453658
v -0.356437 -0.418747 0.533446
v -0.245518 -0.418747 0.592733
v -0.125164 -0.418747 0.629242
v 0.000000 -0.418747 0.641570
v 0.125164 -0.418747 0.629242
v 0.245518 -0.418747 0.592733
v 0.356437 -0.418747 0.533446
v 0.453658 -0.418747 0.453658
v 0.533446 -0.418747 0.356437
v 0.592733 -0.418747 0.245518
v 0.629242 -0.418747 0.125164
v 0.641570 -0.418747 0.000000
v 0.629242 -0.418747 -0.125164
v 0.592733 -0.418747 -0.245518
v 0.533446 -0.418747 -0.356437
v 0.453658 -0.418747 -0.453658
v 0.356437 -0.418747 -0.533446
v 0.245518 -0.418747 -0.592733
v 0.125164 -0.418747 -0.629242
v -0.049034 -0.654654 -0.246511
v 0.000000 -0.654654 -0.251341
v -0.096184 -0.654654 -0.232209
v -0.139637 -0.654654 -0.208982
v -0.177725 -0.654654 -0.177725
v -0.208982 -0.654654 -0.139637
v -0.232209 -0.654654 -0.096184
v -0.246511 -0.654654 -0.049034
v -0.251341 -0.654654 0.000000
v -0.246511 -0.654654 0.049034
v -0.232209 -0.654654 0.096184
v -0.208982 -0.654654 0.139637
v -0.177725 -0.654654 0.177725
v -0.139637 -0.654654 0.208982
v -0.096184 -0.654654 0.232209
v -0.049034 -0.654654 0.246511
v 0.000000 -0.654654 0.251341
v 0.049034 -0.654654 0.246511
v 0.096184 -0.654654 0.232209
v 0.139637 -0.654654 0.208982
v 0.177725 -0.654654 0.177725
v 0.208982 -0.654654 0.139637
v 0.232209 -0.654654 0.096184
v 0.246511 -0.654654 0.049034
v 0.251341 -0.654654 0.000000
v 0.246511 -0.654654 -0.049034
v 0.232209 -0.654654 -0.096184
v 0.208982 -0.654654 -0.139637
v 0.177725 -0.654654 -0.177725
v 0.139637 -0.654654 -0.208982
v 0.096184 -0.654654 -0.232209
v 0.049034 -0.654654 -0.246511
v 0.000000 0.000000 -1.457099
v -0.284266 0.000000 -1.429101
v -0.557608 0.000000 -1.346184
v -0.809521 0.000000 -1.211533
v -1.030325 0.000000 -1.030325
v -1.211533 0.000000 -0.809521
v -1.346184 0.000000 -0.557608
v -1.429101 0.000000 -0.284266
v -1.457099 0.000000 0.000000
v -1.429101 0.000000 0.284266
v -1.346184 0.000000 0.557608
v -1.211533 0.000000 0.809521
v -1.030325 0.000000 1.030325
v -0.809521 0.000000 1.211533
v -0.557608 0.000000 1.346184
v -0.284266 0.000000 1.429101
v 0.000000 0.000000 1.457099
v 0.284266 0.000000 1.429101
v 0.557608 0.000000 1.346184
v 0.809521 0.000000 1.211533
v 1.030325 0.000000 1.030325
v 1.211533 0.000000 0.809521
v 1.346184 0.000000 0.557608
v 1.429101 0.000000 0.284266
v 1.457099 0.000000 0.000000
v 1.429101 0.000000 -0.284266
v 1.346184 0.000000 -0.557608
v 1.211533 0.000000 -0.809521
v 1.030325 0.000000 -1.030325
v 0.809521 0.000000 -1.211533
v 0.557608 0.000000 -1.346184
v 0.284266 0.000000 -1.429101
vn -0.0309 0.9490 -0.3138
vn -0.0915 0.9490 -0.3017
vn -0.1486 0.9490 -0.2781
vn -0.2000 0.9490 -0.2437
vn -0.2437 0.9490 -0.2000
vn -0.2781 0.9490 -0.1486
vn -0.3017 0.9490 -0.0915
vn -0.3138 0.9490 -0.0309
vn -0.3138 0.9490 0.0309
vn -0.3017 0.9490 0.0915
vn -0.2781 0.9490 0.1486
vn -0.2437 0.9490 0.2000
vn -0.2000 0.9490 0.2437
vn -0.1486 0.9490 0.2781
vn -0.0915 0.9490 0.3017
vn -0.0309 0.9490 0.3138
vn 0.0309 0.9490 0.3138
vn 0.0915 0.9490 0.3017
vn 0.1486 0.9490 0.2781
vn 0.2000 0.9490 0.2437
vn 0.2437 0.9490 0.2000
vn 0.2781 0.9490 0.1486
vn 0.3017 0.9490 0.0915
vn 0.3138 0.9490 0.0309
vn 0.3138 0.9490 -0.0309
vn 0.3017 0.9490 -0.0915
vn 0.2781 0.9490 -0.1486
vn 0.2437 0.9490 -0.2000
vn 0.2000 0.9490 -0.2437
vn 0.1486 0.9490 -0.2781
vn 0.0915 0.9490 -0.3017
vn 0.0309 0.9490 -0.3138
vn -0.0560 0.8207 -0.5686
vn -0.1658 0.8207 -0.5467
vn -0.2693 0.8207 -0.5039
vn -0.3624 0.8207 -0.4416
vn -0.4416 0.8207 -0.3624
vn -0.5039 0.8207 -0.2693
vn -0.5467 0.8207 -0.1658
vn -0.5686 0.8207 -0.0560
vn -0.5686 0.8207 0.0560
vn -0.5467 0.8207 0.1658
vn -0.5039 0.8207 0.2693
vn -0.4416 0.8207 0.3624
vn -0.3624 0.8207 0.4416
vn -0.2693 0.8207 0.5039
vn -0.1658 0.8207 0.5467
vn -0.0560 0.8207 0.5686
vn 0.0560 0.8207 0.5686
vn 0.1658 0.8207 0.5467
vn 0.2693 0.8207 0.5039
vn 0.3624 0.8207 0.4416
vn 0.4416 0.8207 0.3624
vn 0.5039 0.8207 0.2693
vn 0.5467 0.8207 0.1658
vn 0.5686 0.8207 0.0560
vn 0.5686 0.8207 -0.0560
vn 0.5467 0.8207 -0.1658
vn 0.5039 0.8207 -0.2693
vn 0.4416 0.8207 -0.3624
vn 0.3624 0.8207 -0.4416
vn 0.2693 0.8207 -0.5039
vn 0.1658 0.8207 -0.5467
vn 0.0560 0.8207 -0.5686
vn -0.0509 0.8547 -0.5167
vn -0.1507 0.8547 -0.4968
vn -0.2447 0.8547 -0.4579
vn -0.3294 0.8547 -0.4013
vn -0.4013 0.8547 -0.3294
vn -0.4579 0.8547 -0.2447
vn -0.4968 0.8547 -0.1507
vn -0.5167 0.8547 -0.0509
vn -0.5167 0.8547 0.0509
vn -0.4968 0.8547 0.1507
vn -0.4579 0.8547 0.2447
vn -0.4013 0.8547 0.3294
vn -0.3294 0.8547 0.4013
vn -0.2447 0.8547 0.4579
vn -0.1507 0.8547 0.4968
vn -0.0509 0.8547 0.5167
vn 0.0509 0.8547 0.5167
vn 0.1507 0.8547 0.4968
vn 0.2447 0.8547 0.4579
vn 0.3294 0.8547 0.4013
vn 0.4013 0.8547 0.3294
vn 0.4579 0.8547 0.2447
vn 0.4968 0.8547 0.1507
vn 0.5167 0.8547 0.0509
vn 0.5167 0.8547 -0.0509
vn 0.4968 0.8547 -0.1507
vn 0.4579 0.8547 -0.2447
vn 0.4013 0.8547 -0.3294
vn 0.3294 0.8547 -0.4013
vn 0.2447 0.8547 -0.4579
vn 0.1507 0.8547 -0.4968
vn 0.0509 0.8547 -0.5167
vn -0.0215 0.9757 -0.2180
vn -0.0636 0.9757 -0.2096
vn -0.1033 0.9757 -0.1932
vn -0.1390 0.9757 -0.1693
vn -0.1693 0.9757 -0.1390
vn -0.1932 0.9757 -0.1033
vn -0.2096 0.9757 -0.0636
vn -0.2180 0.9757 -0.0215
vn -0.2180 0.9757 0.0215
vn -0.2096 0.9757 0.0636
vn -0.1932 0.9757 0.1033
vn -0.1693 0.9757 0.1390
vn -0.1390 0.9757 0.1693
vn -0.1033 0.9757 0.1932
vn -0.0636 0.9757 0.2096
vn -0.0215 0.9757 0.2180
vn 0.0215 0.9757 0.2180
vn 0.0636 0.9757 0.2096
vn 0.1033 0.9757 0.1932
vn 0.1390 0.9757 0.1693
vn 0.1693 0.9757 0.1390
vn 0.1932 0.9757 0.1033
vn 0.2096 0.9757 0.0636
vn 0.2180 0.9757 0.0215
vn 0.2180 0.9757 -0.0215
vn 0.2096 0.9757 -0.0636
vn 0.1932 0.9757 -0.1033
vn 0.1693 0.9757 -0.1390
vn 0.1390 0.9757 -0.1693
vn 0.1033 0.9757 -0.1932
vn 0.0636 0.9757 -0.2096
vn 0.0215 0.9757 -0.2180
vn -0.0309 -0.9490 -0.3138
vn -0.0915 -0.9490 -0.3017
vn -0.1486 -0.9490 -0.2781
vn -0.2000 -0.9490 -0.2437
vn -0.2437 -0.9490 -0.2000
vn -0.2781 -0.9490 -0.1486
vn -0.3017 -0.9490 -0.0915
vn -0.3138 -0.9490 -0.0309
vn -0.3138 -0.9490 0.0309
vn -0.3017 -0.9490 0.0915
vn -0.2781 -0.9490 0.1486
vn -0.2437 -0.9490 0.2000
vn -0.2000 -0.9490 0.2437
vn -0.1486 -0.9490 0.2781
vn -0.0915 -0.9490 0.3017
vn -0.0309 -0.9490 0.3138
vn 0.0309 -0.9490 0.3138
vn 0.0915 -0.9490 0.3017
vn 0.1486 -0.9490 0.2781
vn 0.2000 -0.9490 0.2437
vn 0.2437 -0.9490 0.2000
vn 0.2781 -0.9490 0.1486
vn 0.3017 -0.9490 0.0915
vn 0.3138 -0.9490 0.0309
vn 0.3138 -0.9490 -0.0309
vn 0.3017 -0.9490 -0.0915
vn 0.2781 -0.9490 -0.1486
vn 0.2437 -0.9490 -0.2000
vn 0.2000 -0.9490 -0.2437
vn 0.1486 -0.9490 -0.2781
vn 0.0915 -0.9490 -0.3017
vn 0.0309 -0.9490 -0.3138
vn -0.0560 -0.8207 -0.5686
vn -0.1658 -0.8207 -0.5467
vn -0.2693 -0.8207 -0.5039
vn -0.3624 -0.8207 -0.4416
vn -0.4416 -0.8207 -0.3624
vn -0.5039 -0.8207 -0.2693
vn -0.5467 -0.8207 -0.1658
vn -0.5686 -0.8207 -0.0560
vn -0.5686 -0.8207 0.0560
vn -0.5467 -0.8207 0.1658
vn -0.5039 -0.8207 0.2693
vn -0.4416 -0.8207 0.3624
vn -0.3624 -0.8207 0.4416
vn -0.2693 -0.8207 0.5039
vn -0.1658 -0.8207 0.5467
vn -0.0560 -0.8207 0.5686
vn 0.0560 -0.8207 0.5686
vn 0.1658 -0.8207 0.5467
vn 0.2693 -0.8207 0.5039
vn 0.3624 -0.8207 0.4416
vn 0.4416 -0.8207 0.3624
vn 0.5039 -0.8207 0.2693
vn 0.5467 -0.8207 0.1658
vn 0.5686 -0.8207 0.0560
vn 0.5686 -0.8207 -0.0560
vn 0.5467 -0.8207 -0.1658
vn 0.5039 -0.8207 -0.2693
vn 0.4416 -0.8207 -0.3624
vn 0.3624 -0.8207 -0.4416
vn 0.2693 -0.8207 -0.5039
vn 0.1658 -0.8207 -0.5467
vn 0.0560 -0.8207 -0.5686
vn -0.0509 -0.8547 -0.5167
vn -0.1507 -0.8547 -0.4968
vn -0.2447 -0.8547 -0.4579
vn -0.3294 -0.8547 -0.4013
vn -0.4013 -0.8547 -0.3294
vn -0.4579 -0.8547 -0.2447
vn -0.4968 -0.8547 -0.1507
vn -0.5167 -0.8547 -0.0509
vn -0.5167 -0.8547 0.0509
vn -0.4968 -0.8547 0.1507
vn -0.4579 -0.8547 0.2447
vn -0.4013 -0.8547 0.3294
vn -0.3294 -0.8547 0.4013
vn -0.2447 -0.8547 0.4579
vn -0.1507 -0.8547 0.4968
vn -0.0509 -0.8547 0.5167
vn 0.0509 -0.8547 0.5167
vn 0.1507 -0.8547 0.4968
vn 0.2447 -0.8547 0.4579
vn 0.3294 -0.8547 0.4013
vn 0.4013 -0.8547 0.3294
vn 0.4579 -0.8547 0.2447
vn 0.4968 -0.8547 0.1507
vn 0.5167 -0.8547 0.0509
vn 0.5167 -0.8547 -0.0509
vn 0.4968 -0.8547 -0.1507
vn 0.4579 -0.8547 -0.2447
vn 0.4013 -0.8547 -0.3294
vn 0.3294 -0.8547 -0.4013
vn 0.2447 -0.8547 -0.4579
vn 0.1507 -0.8547 -0.4968
vn 0.0509 -0.8547 -0.5167
vn -0.0215 -0.9757 -0.2180
vn -0.0636 -0.9757 -0.2096
vn -0.1033 -0.9757 -0.1932
vn -0.1390 -0.9757 -0.1693
vn -0.1693 -0.9757 -0.1390
vn -0.1932 -0.9757 -0.1033
vn -0.2096 -0.9757 -0.0636
vn -0.2180 -0.9757 -0.0215
vn -0.2180 -0.9757 0.0215
vn -0.2096 -0.9757 0.0636
vn -0.1932 -0.9757 0.1033
vn -0.1693 -0.9757 0.1390
vn -0.1390 -0.9757 0.1693
vn -0.1033 -0.9757 0.1932
vn -0.0636 -0.9757 0.2096
vn -0.0215 -0.9757 0.2180
vn 0.0215 -0.9757 0.2180
vn 0.0636 -0.9757 0.2096
vn 0.1033 -0.9757 0.1932
vn 0.1390 -0.9757 0.1693
vn 0.1693 -0.9757 0.1390
vn 0.1932 -0.9757 0.1033
vn 0.2096 -0.9757 0.0636
vn 0.2180 -0.9757 0.0215
vn 0.2180 -0.9757 -0.0215
vn 0.2096 -0.9757 -0.0636
vn 0.1932 -0.9757 -0.1033
vn 0.1693 -0.9757 -0.1390
vn 0.1390 -0.9757 -0.1693
vn 0.1033 -0.9757 -0.1932
vn 0.0636 -0.9757 -0.2096
vn 0.0215 -0.9757 -0.2180
vn -0.0000 1.0000 -0.0000
vt 0.846982 0.374110
vt 0.867565 0.449617
vt 0.824049 0.397413
vt 0.797020 0.415795
vt 0.829601 0.475448
vt 0.787339 0.493506
vt 0.766944 0.428599
vt 0.742316 0.503036
vt 0.734934 0.435316
vt 0.702170 0.435536
vt 0.696200 0.503565
vt 0.669923 0.429483
vt 0.650746 0.495171
vt 0.607675 0.478016
vt 0.639460 0.417227
vt 0.612010 0.399186
vt 0.568718 0.452580
vt 0.535778 0.419723
vt 0.588656 0.376110
vt 0.570425 0.348838
vt 0.510125 0.381116
vt 0.492497 0.338394
vt 0.557849 0.318529
vt 0.483505 0.293164
vt 0.551333 0.286388
vt 0.551237 0.253656
vt 0.483505 0.247148
vt 0.557477 0.221553
vt 0.492351 0.202048
vt 0.509742 0.159546
vt 0.569825 0.191283
vt 0.587817 0.164016
vt 0.535056 0.121261
vt 0.567263 0.088563
vt 0.610729 0.140751
vt 0.637810 0.122461
vt 0.605253 0.062762
vt 0.647526 0.044724
vt 0.667902 0.109648
vt 0.692549 0.035206
vt 0.699919 0.102927
vt 0.732682 0.102707
vt 0.738659 0.034685
vt 0.764926 0.108760
vt 0.784106 0.043083
vt 0.827169 0.060238
vt 0.795385 0.121016
vt 0.822829 0.139059
vt 0.866118 0.085674
vt 0.899052 0.118527
vt 0.846177 0.162138
vt 0.864445 0.189427
vt 0.924777 0.157084
vt 0.942388 0.199812
vt 0.877088 0.219707
vt 0.951397 0.245034
vt 0.883597 0.251818
vt 0.883703 0.284521
vt 0.951393 0.291047
vt 0.877383 0.316599
vt 0.942520 0.336136
vt 0.925113 0.378634
vt 0.865055 0.346878
vt 0.899773 0.416910
vt 0.788000 0.326208
vt 0.775540 0.338916
vt 0.760832 0.348961
vt 0.744442 0.355956
vt 0.726995 0.359629
vt 0.709166 0.359659
vt 0.691653 0.356384
vt 0.675113 0.349749
vt 0.660214 0.339940
vt 0.647456 0.327441
vt 0.637542 0.312600
vt 0.630668 0.296167
vt 0.627034 0.278752
vt 0.626938 0.260948
vt 0.630320 0.243446
vt 0.636985 0.226904
vt 0.646742 0.211980
vt 0.659276 0.199280
vt 0.674056 0.189292
vt 0.690435 0.182287
vt 0.707874 0.178606
vt 0.725695 0.178571
vt 0.743201 0.181840
vt 0.759732 0.188470
vt 0.774621 0.198275
vt 0.787367 0.210768
vt 0.797267 0.225602
vt 0.804235 0.242011
vt 0.807863 0.259469
vt 0.807944 0.277320
vt 0.804516 0.294831
vt 0.797844 0.311363
vt 0.740506 0.287569
vt 0.736457 0.291735
vt 0.731672 0.295035
vt 0.726333 0.297340
vt 0.720645 0.298562
vt 0.714832 0.298577
vt 0.709121 0.297533
vt 0.703719 0.295392
vt 0.698882 0.292177
vt 0.694722 0.288138
vt 0.691495 0.283325
vt 0.689199 0.277993
vt 0.687985 0.272307
vt 0.687976 0.266495
vt 0.689099 0.260808
vt 0.691237 0.255424
vt 0.694388 0.250552
vt 0.698481 0.246443
vt 0.703252 0.243150
vt 0.708578 0.240847
vt 0.714254 0.239626
vt 0.720057 0.239611
vt 0.725759 0.240653
vt 0.731152 0.242791
vt 0.735981 0.246001
vt 0.740135 0.250034
vt 0.743355 0.254842
vt 0.745646 0.260157
vt 0.746855 0.265826
vt 0.746860 0.271618
vt 0.745808 0.277313
vt 0.743665 0.282697
vt 0.717441 0.269080
vt 0.496489 0.489435
vt 0.474590 0.569805
vt 0.450177 0.544998
vt 0.421407 0.525432
vt 0.411114 0.442725
vt 0.389390 0.511806
vt 0.363203 0.432568
vt 0.355304 0.504662
vt 0.320441 0.504327
vt 0.286154 0.510812
vt 0.314136 0.431965
vt 0.219951 0.459194
vt 0.253769 0.523862
vt 0.224574 0.543067
vt 0.143461 0.521241
vt 0.199736 0.567625
vt 0.180298 0.596644
vt 0.097336 0.607755
vt 0.166817 0.628834
vt 0.087819 0.655887
vt 0.159990 0.663016
vt 0.159951 0.697877
vt 0.166573 0.732078
vt 0.087819 0.704867
vt 0.115788 0.798093
vt 0.179693 0.764296
vt 0.198930 0.793268
vt 0.177040 0.873623
vt 0.223343 0.818058
vt 0.252119 0.837615
vt 0.262426 0.920326
vt 0.284140 0.851235
vt 0.310344 0.930476
vt 0.318230 0.858374
vt 0.353093 0.858703
vt 0.387388 0.852245
vt 0.359417 0.931070
vt 0.453631 0.903886
vt 0.419796 0.839183
vt 0.449011 0.819957
vt 0.530171 0.841839
vt 0.473872 0.795361
vt 0.493368 0.766381
vt 0.576298 0.755302
vt 0.506834 0.734214
vt 0.585813 0.707164
vt 0.513657 0.700053
vt 0.513698 0.665220
vt 0.506964 0.631041
vt 0.585792 0.658182
vt 0.557751 0.564968
vt 0.493833 0.598798
vt 0.411795 0.620782
vt 0.398551 0.607250
vt 0.382917 0.596555
vt 0.365496 0.589110
vt 0.346959 0.585200
vt 0.328003 0.585051
vt 0.309357 0.588530
vt 0.291774 0.595652
vt 0.275903 0.606089
vt 0.262363 0.619450
vt 0.251734 0.635205
vt 0.244360 0.652716
vt 0.240583 0.671327
vt 0.240587 0.690283
vt 0.244106 0.708908
vt 0.251193 0.726499
vt 0.261653 0.742291
vt 0.274951 0.755767
vt 0.290595 0.766466
vt 0.308024 0.773913
vt 0.326566 0.777825
vt 0.345528 0.777976
vt 0.364174 0.774500
vt 0.381758 0.767381
vt 0.397626 0.756950
vt 0.411159 0.743602
vt 0.421886 0.727898
vt 0.429274 0.710360
vt 0.433066 0.691729
vt 0.433078 0.672755
vt 0.429393 0.654163
vt 0.422252 0.636594
vt 0.361213 0.661776
vt 0.356912 0.657355
vt 0.351826 0.653852
vt 0.346148 0.651404
vt 0.340092 0.650107
vt 0.333900 0.650093
vt 0.327816 0.651208
vt 0.322096 0.653562
vt 0.316960 0.656981
vt 0.312603 0.661327
vt 0.309111 0.666402
vt 0.306753 0.672092
vt 0.305473 0.678121
vt 0.305474 0.684283
vt 0.306598 0.690343
vt 0.308884 0.696076
vt 0.312254 0.701267
vt 0.316625 0.705647
vt 0.321712 0.709151
vt 0.327394 0.711601
vt 0.333453 0.712899
vt 0.339649 0.712914
vt 0.345738 0.711797
vt 0.351464 0.709441
vt 0.356606 0.706020
vt 0.360970 0.701668
vt 0.364467 0.696590
vt 0.366830 0.690894
vt 0.368115 0.684855
vt 0.368117 0.678681
vt 0.366916 0.672633
vt 0.364564 0.666943
vt 0.336773 0.681499
vt 0.741222 0.732694
vt 0.749940 0.745716
vt 0.749934 0.745732
vt 0.862513 0.633153
vt 0.849476 0.624459
vt 0.849475 0.624441
vt 0.735221 0.718207
vt 0.741232 0.732679
vt 0.873601 0.644241
vt 0.862510 0.633171
vt 0.732162 0.702827
vt 0.735233 0.718194
vt 0.882313 0.657280
vt 0.873595 0.644258
vt 0.732162 0.687146
vt 0.732177 0.702817
vt 0.888314 0.671767
vt 0.882304 0.657295
vt 0.735221 0.671767
vt 0.732178 0.687139
vt 0.891373 0.687146
vt 0.888302 0.671780
vt 0.741222 0.657279
vt 0.735239 0.671763
vt 0.891373 0.702827
vt 0.891358 0.687157
vt 0.749934 0.644241
vt 0.741240 0.657279
vt 0.888314 0.718207
vt 0.891357 0.702835
vt 0.761022 0.633153
vt 0.749952 0.644244
vt 0.819608 0.774592
vt 0.834974 0.771521
vt 0.834988 0.771533
vt 0.882313 0.732694
vt 0.888296 0.718211
vt 0.774060 0.624441
vt 0.761039 0.633160
vt 0.803927 0.774592
vt 0.819597 0.774578
vt 0.873601 0.745732
vt 0.882295 0.732695
vt 0.788547 0.618441
vt 0.774076 0.624451
vt 0.788547 0.771533
vt 0.803920 0.774576
vt 0.862513 0.756821
vt 0.873583 0.745730
vt 0.803927 0.615381
vt 0.788561 0.618453
vt 0.774060 0.765532
vt 0.788543 0.771516
vt 0.849475 0.765532
vt 0.862496 0.756814
vt 0.819608 0.615381
vt 0.803938 0.615396
vt 0.761022 0.756821
vt 0.774060 0.765514
vt 0.849460 0.765523
vt 0.834988 0.618441
vt 0.819615 0.615398
vt 0.761025 0.756803
vt 0.834992 0.618458
vt 0.530772 0.524239
vt 0.456086 0.461945
vt 0.265778 0.440947
vt 0.178501 0.486268
vt 0.116104 0.562286
vt 0.097262 0.752869
vt 0.142759 0.838822
vt 0.217447 0.901109
vt 0.407791 0.922145
vt 0.495099 0.876809
vt 0.557511 0.800768
vt 0.576302 0.610192
s 0
usemtl マテリアル
f 35/1/1 2/2/1 34/3/1
f 36/4/2 2/2/2 3/5/2
f 36/4/3 4/6/3 37/7/3
f 37/7/4 5/8/4 38/9/4
f 39/10/5 5/8/5 6/11/5
f 40/12/6 6/11/6 7/13/6
f 40/12/7 8/14/7 41/15/7
f 42/16/8 8/14/8 9/17/8
f 42/16/9 10/18/9 43/19/9
f 44/20/10 10/18/10 11/21/10
f 44/20/11 12/22/11 45/23/11
f 45/23/12 13/24/12 46/25/12
f 47/26/13 13/24/13 14/27/13
f 48/28/14 14/27/14 15/29/14
f 48/28/15 16/30/15 49/31/15
f 50/32/16 16/30/16 17/33/16
f 50/32/17 18/34/17 51/35/17
f 52/36/18 18/34/18 19/37/18
f 52/36/19 20/38/19 53/39/19
f 53/39/20 21/40/20 54/41/20
f 55/42/21 21/40/21 22/43/21
f 56/44/22 22/43/22 23/45/22
f 56/44/23 24/46/23 57/47/23
f 58/48/24 24/46/24 25/49/24
f 58/48/25 26/50/25 59/51/25
f 60/52/26 26/50/26 27/53/26
f 60/52/27 28/54/27 61/55/27
f 61/55/28 29/56/28 62/57/28
f 63/58/29 29/56/29 30/59/29
f 64/60/30 30/59/30 31/61/30
f 64/60/31 32/62/31 65/63/31
f 35/1/32 32/62/32 1/64/32
f 67/65/33 34/3/33 66/66/33
f 68/67/34 34/3/34 36/4/34
f 68/67/35 37/7/35 69/68/35
f 69/68/36 38/9/36 70/69/36
f 71/70/37 38/9/37 39/10/37
f 72/71/38 39/10/38 40/12/38
f 72/71/39 41/15/39 73/72/39
f 74/73/40 41/15/40 42/16/40
f 74/73/41 43/19/41 75/74/41
f 76/75/42 43/19/42 44/20/42
f 76/75/43 45/23/43 77/76/43
f 77/76/44 46/25/44 78/77/44
f 79/78/45 46/25/45 47/26/45
f 80/79/46 47/26/46 48/28/46
f 80/79/47 49/31/47 81/80/47
f 82/81/48 49/31/48 50/32/48
f 82/81/49 51/35/49 83/82/49
f 84/83/50 51/35/50 52/36/50
f 84/83/51 53/39/51 85/84/51
f 85/84/52 54/41/52 86/85/52
f 87/86/53 54/41/53 55/42/53
f 88/87/54 55/42/54 56/44/54
f 88/87/55 57/47/55 89/88/55
f 90/89/56 57/47/56 58/48/56
f 90/89/57 59/51/57 91/90/57
f 92/91/58 59/51/58 60/52/58
f 92/91/59 61/55/59 93/92/59
f 93/92/60 62/57/60 94/93/60
f 95/94/61 62/57/61 63/58/61
f 96/95/62 63/58/62 64/60/62
f 96/95/63 65/63/63 97/96/63
f 67/65/64 65/63/64 35/1/64
f 99/97/65 66/66/65 98/98/65
f 100/99/66 66/66/66 68/67/66
f 100/99/67 69/68/67 101/100/67
f 101/100/68 70/69/68 102/101/68
f 103/102/69 70/69/69 71/70/69
f 104/103/70 71/70/70 72/71/70
f 104/103/71 73/72/71 105/104/71
f 105/104/72 74/73/72 106/105/72
f 107/106/73 74/73/73 75/74/73
f 108/107/74 75/74/74 76/75/74
f 109/108/75 76/75/75 77/76/75
f 109/108/76 78/77/76 110/109/76
f 111/110/77 78/77/77 79/78/77
f 112/111/78 79/78/78 80/79/78
f 112/111/79 81/80/79 113/112/79
f 113/112/80 82/81/80 114/113/80
f 115/114/81 82/81/81 83/82/81
f 116/115/82 83/82/82 84/83/82
f 116/115/83 85/84/83 117/116/83
f 117/116/84 86/85/84 118/117/84
f 119/118/85 86/85/85 87/86/85
f 120/119/86 87/86/86 88/87/86
f 120/119/87 89/88/87 121/120/87
f 121/120/88 90/89/88 122/121/88
f 123/122/89 90/89/89 91/90/89
f 124/123/90 91/90/90 92/91/90
f 125/124/91 92/91/91 93/92/91
f 125/124/92 94/93/92 126/125/92
f 127/126/93 94/93/93 95/94/93
f 128/127/94 95/94/94 96/95/94
f 128/127/95 97/96/95 129/128/95
f 99/97/96 97/96/96 67/65/96
f 33/129/97 99/97/97 98/98/97
f 33/129/98 98/98/98 100/99/98
f 33/129/99 100/99/99 101/100/99
f 33/129/100 101/100/100 102/101/100
f 33/129/101 102/101/101 103/102/101
f 33/129/102 103/102/102 104/103/102
f 33/129/103 104/103/103 105/104/103
f 33/129/104 105/104/104 106/105/104
f 33/129/105 106/105/105 107/106/105
f 33/129/106 107/106/106 108/107/106
f 33/129/107 108/107/107 109/108/107
f 33/129/108 109/108/108 110/109/108
f 33/129/109 110/109/109 111/110/109
f 33/129/110 111/110/110 112/111/110
f 33/129/111 112/111/111 113/112/111
f 33/129/112 113/112/112 114/113/112
f 33/129/113 114/113/113 115/114/113
f 33/129/114 115/114/114 116/115/114
f 33/129/115 116/115/115 117/116/115
f 33/129/116 117/116/116 118/117/116
f 33/129/117 118/117/117 119/118/117
f 33/129/118 119/118/118 120/119/118
f 33/129/119 120/119/119 121/120/119
f 33/129/120 121/120/120 122/121/120
f 33/129/121 122/121/121 123/122/121
f 33/129/122 123/122/122 124/123/122
f 33/129/123 124/123/123 125/124/123
f 33/129/124 125/124/124 126/125/124
f 33/129/125 126/125/125 127/126/125
f 33/129/126 127/126/126 128/127/126
f 33/129/127 128/127/127 129/128/127
f 33/129/128 129/128/128 99/97/128
f 2/130/129 132/131/129 131/132/129
f 133/133/130 2/130/130 131/132/130
f 4/134/131 133/133/131 134/135/131
f 5/136/132 134/135/132 135/137/132
f 136/138/133 5/136/133 135/137/133
f 137/139/134 6/140/134 136/138/134
f 8/141/135 137/139/135 138/142/135
f 139/143/136 8/141/136 138/142/136
f 10/144/137 139/143/137 140/145/137
f 141/146/138 10/144/138 140/145/138
f 12/147/139 141/146/139 142/148/139
f 13/149/140 142/148/140 143/150/140
f 144/151/141 13/149/141 143/150/141
f 145/152/142 14/153/142 144/151/142
f 16/154/143 145/152/143 146/155/143
f 147/156/144 16/154/144 146/155/144
f 18/157/145 147/156/145 148/158/145
f 149/159/146 18/157/146 148/158/146
f 20/160/147 149/159/147 150/161/147
f 21/162/148 150/161/148 151/163/148
f 152/164/149 21/162/149 151/163/149
f 153/165/150 22/166/150 152/164/150
f 24/167/151 153/165/151 154/168/151
f 155/169/152 24/167/152 154/168/152
f 26/170/153 155/169/153 156/171/153
f 157/172/154 26/170/154 156/171/154
f 28/173/155 157/172/155 158/174/155
f 29/175/156 158/174/156 159/176/156
f 160/177/157 29/175/157 159/176/157
f 161/178/158 30/179/158 160/177/158
f 32/180/159 161/178/159 162/181/159
f 132/131/160 32/180/160 162/181/160
f 131/132/161 164/182/161 163/183/161
f 165/184/162 131/132/162 163/183/162
f 134/135/163 165/184/163 166/185/163
f 135/137/164 166/185/164 167/186/164
f 168/187/165 135/137/165 167/186/165
f 169/188/166 136/138/166 168/187/166
f 138/142/167 169/188/167 170/189/167
f 171/190/168 138/142/168 170/189/168
f 140/145/169 171/190/169 172/191/169
f 173/192/170 140/145/170 172/191/170
f 142/148/171 173/192/171 174/193/171
f 143/150/172 174/193/172 175/194/172
f 176/195/173 143/150/173 175/194/173
f 177/196/174 144/151/174 176/195/174
f 146/155/175 177/196/175 178/197/175
f 179/198/176 146/155/176 178/197/176
f 148/158/177 179/198/177 180/199/177
f 181/200/178 148/158/178 180/199/178
f 150/161/179 181/200/179 182/201/179
f 151/163/180 182/201/180 183/202/180
f 184/203/181 151/163/181 183/202/181
f 185/204/182 152/164/182 184/203/182
f 154/168/183 185/204/183 186/205/183
f 187/206/184 154/168/184 186/205/184
f 156/171/185 187/206/185 188/207/185
f 189/208/186 156/171/186 188/207/186
f 158/174/187 189/208/187 190/209/187
f 159/176/188 190/209/188 191/210/188
f 192/211/189 159/176/189 191/210/189
f 193/212/190 160/177/190 192/211/190
f 162/181/191 193/212/191 194/213/191
f 164/182/192 162/181/192 194/213/192
f 163/183/193 196/214/193 195/215/193
f 197/216/194 163/183/194 195/215/194
f 166/185/195 197/216/195 198/217/195
f 167/186/196 198/217/196 199/218/196
f 200/219/197 167/186/197 199/218/197
f 201/220/198 168/187/198 200/219/198
f 170/189/199 201/220/199 202/221/199
f 171/190/200 202/221/200 203/222/200
f 204/223/201 171/190/201 203/222/201
f 205/224/202 172/191/202 204/223/202
f 206/225/203 173/192/203 205/224/203
f 175/194/204 206/225/204 207/226/204
f 208/227/205 175/194/205 207/226/205
f 209/228/206 176/195/206 208/227/206
f 178/197/207 209/228/207 210/229/207
f 179/198/208 210/229/208 211/230/208
f 212/231/209 179/198/209 211/230/209
f 213/232/210 180/199/210 212/231/210
f 182/201/211 213/232/211 214/233/211
f 183/202/212 214/233/212 215/234/212
f 216/235/213 183/202/213 215/234/213
f 217/236/214 184/203/214 216/235/214
f 186/205/215 217/236/215 218/237/215
f 187/206/216 218/237/216 219/238/216
f 220/239/217 187/206/217 219/238/217
f 221/240/218 188/207/218 220/239/218
f 222/241/219 189/208/219 221/240/219
f 191/210/220 222/241/220 223/242/220
f 224/243/221 191/210/221 223/242/221
f 225/244/222 192/211/222 224/243/222
f 194/213/223 225/244/223 226/245/223
f 196/214/224 194/213/224 226/245/224
f 130/246/225 195/215/225 196/214/225
f 130/246/226 197/216/226 195/215/226
f 130/246/227 198/217/227 197/216/227
f 130/246/228 199/218/228 198/217/228
f 130/246/229 200/219/229 199/218/229
f 130/246/230 201/220/230 200/219/230
f 130/246/231 202/221/231 201/220/231
f 130/246/232 203/222/232 202/221/232
f 130/246/233 204/223/233 203/222/233
f 130/246/234 205/224/234 204/223/234
f 130/246/235 206/225/235 205/224/235
f 130/246/236 207/226/236 206/225/236
f 130/246/237 208/227/237 207/226/237
f 130/246/238 209/228/238 208/227/238
f 130/246/239 210/229/239 209/228/239
f 130/246/240 211/230/240 210/229/240
f 130/246/241 212/231/241 211/230/241
f 130/246/242 213/232/242 212/231/242
f 130/246/243 214/233/243 213/232/243
f 130/246/244 215/234/244 214/233/244
f 130/246/245 216/235/245 215/234/245
f 130/246/246 217/236/246 216/235/246
f 130/246/247 218/237/247 217/236/247
f 130/246/248 219/238/248 218/237/248
f 130/246/249 220/239/249 219/238/249
f 130/246/250 221/240/250 220/239/250
f 130/246/251 222/241/251 221/240/251
f 130/246/252 223/242/252 222/241/252
f 130/246/253 224/243/253 223/242/253
f 130/246/254 225/244/254 224/243/254
f 130/246/255 226/245/255 225/244/255
f 130/246/256 196/214/256 226/245/256
f 8/247/257 233/248/257 7/249/257
f 22/250/257 247/251/257 21/252/257
f 9/253/257 234/254/257 8/247/257
f 23/255/257 248/256/257 22/250/257
f 10/257/257 235/258/257 9/253/257
f 24/259/257 249/260/257 23/255/257
f 11/261/257 236/262/257 10/257/257
f 25/263/257 250/264/257 24/259/257
f 12/265/257 237/266/257 11/261/257
f 26/267/257 251/268/257 25/263/257
f 13/269/257 238/270/257 12/265/257
f 27/271/257 252/272/257 26/267/257
f 14/273/257 239/274/257 13/269/257
f 28/275/257 253/276/257 27/271/257
f 15/277/257 240/278/257 14/273/257
f 2/279/257 227/280/257 1/281/257
f 29/282/257 254/283/257 28/275/257
f 16/284/257 241/285/257 15/277/257
f 3/286/257 228/287/257 2/279/257
f 30/288/257 255/289/257 29/282/257
f 17/290/257 242/291/257 16/284/257
f 4/292/257 229/293/257 3/286/257
f 31/294/257 256/295/257 30/288/257
f 18/296/257 243/297/257 17/290/257
f 5/298/257 230/299/257 4/292/257
f 32/300/257 257/301/257 31/294/257
f 19/302/257 244/303/257 18/296/257
f 6/304/257 231/305/257 5/298/257
f 1/281/257 258/306/257 32/300/257
f 20/307/257 245/308/257 19/302/257
f 7/249/257 232/309/257 6/304/257
f 21/252/257 246/310/257 20/307/257
f 35/1/1 1/64/1 2/2/1
f 36/4/2 34/3/2 2/2/2
f 36/4/3 3/5/3 4/6/3
f 37/7/4 4/6/4 5/8/4
f 39/10/5 38/9/5 5/8/5
f 40/12/6 39/10/6 6/11/6
f 40/12/7 7/13/7 8/14/7
f 42/16/8 41/15/8 8/14/8
f 42/16/9 9/17/9 10/18/9
f 44/20/10 43/19/10 10/18/10
f 44/20/11 11/21/11 12/22/11
f 45/23/12 12/22/12 13/24/12
f 47/26/13 46/25/13 13/24/13
f 48/28/14 47/26/14 14/27/14
f 48/28/15 15/29/15 16/30/15
f 50/32/16 49/31/16 16/30/16
f 50/32/17 17/33/17 18/34/17
f 52/36/18 51/35/18 18/34/18
f 52/36/19 19/37/19 20/38/19
f 53/39/20 20/38/20 21/40/20
f 55/42/21 54/41/21 21/40/21
f 56/44/22 55/42/22 22/43/22
f 56/44/23 23/45/23 24/46/23
f 58/48/24 57/47/24 24/46/24
f 58/48/25 25/49/25 26/50/25
f 60/52/26 59/51/26 26/50/26
f 60/52/27 27/53/27 28/54/27
f 61/55/28 28/54/28 29/56/28
f 63/58/29 62/57/29 29/56/29
f 64/60/30 63/58/30 30/59/30
f 64/60/31 31/61/31 32/62/31
f 35/1/32 65/63/32 32/62/32
f 67/65/33 35/1/33 34/3/33
f 68/67/34 66/66/34 34/3/34
f 68/67/35 36/4/35 37/7/35
f 69/68/36 37/7/36 38/9/36
f 71/70/37 70/69/37 38/9/37
f 72/71/38 71/70/38 39/10/38
f 72/71/39 40/12/39 41/15/39
f 74/73/40 73/72/40 41/15/40
f 74/73/41 42/16/41 43/19/41
f 76/75/42 75/74/42 43/19/42
f 76/75/43 44/20/43 45/23/43
f 77/76/44 45/23/44 46/25/44
f 79/78/45 78/77/45 46/25/45
f 80/79/46 79/78/46 47/26/46
f 80/79/47 48/28/47 49/31/47
f 82/81/48 81/80/48 49/31/48
f 82/81/49 50/32/49 51/35/49
f 84/83/50 83/82/50 51/35/50
f 84/83/51 52/36/51 53/39/51
f 85/84/52 53/39/52 54/41/52
f 87/86/53 86/85/53 54/41/53
f 88/87/54 87/86/54 55/42/54
f 88/87/55 56/44/55 57/47/55
f 90/89/56 89/88/56 57/47/56
f 90/89/57 58/48/57 59/51/57
f 92/91/58 91/90/58 59/51/58
f 92/91/59 60/52/59 61/55/59
f 93/92/60 61/55/60 62/57/60
f 95/94/61 94/93/61 62/57/61
f 96/95/62 95/94/62 63/58/62
f 96/95/63 64/60/63 65/63/63
f 67/65/64 97/96/64 65/63/64
f 99/97/65 67/65/65 66/66/65
f 100/99/66 98/98/66 66/66/66
f 100/99/67 68/67/67 69/68/67
f 101/100/68 69/68/68 70/69/68
f 103/102/69 102/101/69 70/69/69
f 104/103/70 103/102/70 71/70/70
f 104/103/71 72/71/71 73/72/71
f 105/104/72 73/72/72 74/73/72
f 107/106/73 106/105/73 74/73/73
f 108/107/74 107/106/74 75/74/74
f 109/108/75 108/107/75 76/75/75
f 109/108/76 77/76/76 78/77/76
f 111/110/77 110/109/77 78/77/77
f 112/111/78 111/110/78 79/78/78
f 112/111/79 80/79/79 81/80/79
f 113/112/80 81/80/80 82/81/80
f 115/114/81 114/113/81 82/81/81
f 116/115/82 115/114/82 83/82/82
f 116/115/83 84/83/83 85/84/83
f 117/116/84 85/84/84 86/85/84
f 119/118/85 118/117/85 86/85/85
f 120/119/86 119/118/86 87/86/86
f 120/119/87 88/87/87 89/88/87
f 121/120/88 89/88/88 90/89/88
f 123/122/89 122/121/89 90/89/89
f 124/123/90 123/122/90 91/90/90
f 125/124/91 124/123/91 92/91/91
f 125/124/92 93/92/92 94/93/92
f 127/126/93 126/125/93 94/93/93
f 128/127/94 127/126/94 95/94/94
f 128/127/95 96/95/95 97/96/95
f 99/97/96 129/128/96 97/96/96
f 2/130/129 1/311/129 132/131/129
f 133/133/130 3/312/130 2/130/130
f 4/134/131 3/312/131 133/133/131
f 5/136/132 4/134/132 134/135/132
f 136/138/133 6/140/133 5/136/133
f 137/139/134 7/313/134 6/140/134
f 8/141/135 7/313/135 137/139/135
f 139/143/136 9/314/136 8/141/136
f 10/144/137 9/314/137 139/143/137
f 141/146/138 11/315/138 10/144/138
f 12/147/139 11/315/139 141/146/139
f 13/149/140 12/147/140 142/148/140
f 144/151/141 14/153/141 13/149/141
f 145/152/142 15/316/142 14/153/142
f 16/154/143 15/316/143 145/152/143
f 147/156/144 17/317/144 16/154/144
f 18/157/145 17/317/145 147/156/145
f 149/159/146 19/318/146 18/157/146
f 20/160/147 19/318/147 149/159/147
f 21/162/148 20/160/148 150/161/148
f 152/164/149 22/166/149 21/162/149
f 153/165/150 23/319/150 22/166/150
f 24/167/151 23/319/151 153/165/151
f 155/169/152 25/320/152 24/167/152
f 26/170/153 25/320/153 155/169/153
f 157/172/154 27/321/154 26/170/154
f 28/173/155 27/321/155 157/172/155
f 29/175/156 28/173/156 158/174/156
f 160/177/157 30/179/157 29/175/157
f 161/178/158 31/322/158 30/179/158
f 32/180/159 31/322/159 161/178/159
f 132/131/160 1/311/160 32/180/160
f 131/132/161 132/131/161 164/182/161
f 165/184/162 133/133/162 131/132/162
f 134/135/163 133/133/163 165/184/163
f 135/137/164 134/135/164 166/185/164
f 168/187/165 136/138/165 135/137/165
f 169/188/166 137/139/166 136/138/166
f 138/142/167 137/139/167 169/188/167
f 171/190/168 139/143/168 138/142/168
f 140/145/169 139/143/169 171/190/169
f 173/192/170 141/146/170 140/145/170
f 142/148/171 141/146/171 173/192/171
f 143/150/172 142/148/172 174/193/172
f 176/195/173 144/151/173 143/150/173
f 177/196/174 145/152/174 144/151/174
f 146/155/175 145/152/175 177/196/175
f 179/198/176 147/156/176 146/155/176
f 148/158/177 147/156/177 179/198/177
f 181/200/178 149/159/178 148/158/178
f 150/161/179 149/159/179 181/200/179
f 151/163/180 150/161/180 182/201/180
f 184/203/181 152/164/181 151/163/181
f 185/204/182 153/165/182 152/164/182
f 154/168/183 153/165/183 185/204/183
f 187/206/184 155/169/184 154/168/184
f 156/171/185 155/169/185 187/206/185
f 189/208/186 157/172/186 156/171/186
f 158/174/187 157/172/187 189/208/187
f 159/176/188 158/174/188 190/209/188
f 192/211/189 160/177/189 159/176/189
f 193/212/190 161/178/190 160/177/190
f 162/181/191 161/178/191 193/212/191
f 164/182/192 132/131/192 162/181/192
f 163/183/193 164/182/193 196/214/193
f 197/216/194 165/184/194 163/183/194
f 166/185/195 165/184/195 197/216/195
f 167/186/196 166/185/196 198/217/196
f 200/219/197 168/187/197 167/186/197
f 201/220/198 169/188/198 168/187/198
f 170/189/199 169/188/199 201/220/199
f 171/190/200 170/189/200 202/221/200
f 204/223/201 172/191/201 171/190/201
f 205/224/202 173/192/202 172/191/202
f 206/225/203 174/193/203 173/192/203
f 175/194/204 174/193/204 206/225/204
f 208/227/205 176/195/205 175/194/205
f 209/228/206 177/196/206 176/195/206
f 178/197/207 177/196/207 209/228/207
f 179/198/208 178/197/208 210/229/208
f 212/231/209 180/199/209 179/198/209
f 213/232/210 181/200/210 180/199/210
f 182/201/211 181/200/211 213/232/211
f 183/202/212 182/201/212 214/233/212
f 216/235/213 184/203/213 183/202/213
f 217/236/214 185/204/214 184/203/214
f 186/205/215 185/204/215 217/236/215
f 187/206/216 186/205/216 218/237/216
f 220/239/217 188/207/217 187/206/217
f 221/240/218 189/208/218 188/207/218
f 222/241/219 190/209/219 189/208/219
f 191/210/220 190/209/220 222/241/220
f 224/243/221 192/211/221 191/210/221
f 225/244/222 193/212/222 192/211/222
f 194/213/223 193/212/223 225/244/223
f 196/214/224 164/182/224 194/213/224
f 8/247/257 234/254/257 233/248/257
f 22/250/257 248/256/257 247/251/257
f 9/253/257 235/258/257 234/254/257
f 23/255/257 249/260/257 248/256/257
f 10/257/257 236/262/257 235/258/257
f 24/259/257 250/264/257 249/260/257
f 11/261/257 237/266/257 236/262/257
f 25/263/257 251/268/257 250/264/257
f 12/265/257 238/270/257 237/266/257
f 26/267/257 252/272/257 251/268/257
f 13/269/257 239/274/257 238/270/257
f 27/271/257 253/276/257 252/272/257
f 14/273/257 240/278/257 239/274/257
f 28/275/257 254/283/257 253/276/257
f 15/277/257 241/285/257 240/278/257
f 2/279/257 228/287/257 227/280/257
f 29/282/257 255/289/257 254/283/257
f 16/284/257 242/291/257 241/285/257
f 3/286/257 229/293/257 228/287/257
f 30/288/257 256/295/257 255/289/257
f 17/290/257 243/297/257 242/291/257
f 4/292/257 230/299/257 229/293/257
f 31/294/257 257/301/257 256/295/257
f 18/296/257 244/303/257 243/297/257
f 5/298/257 231/305/257 230/299/257
f 32/300/257 258/306/257 257/301/257
f 19/302/257 245/308/257 244/303/257
f 6/304/257 232/309/257 231/305/257
f 1/281/257 227/280/257 258/306/257
f 20/307/257 246/310/257 245/308/257
f 7/249/257 233/248/257 232/309/257
f 21/252/257 247/251/257 246/310/257
